<svg xmlns="http://www.w3.org/2000/svg" xmlns:xlink="http://www.w3.org/1999/xlink" id="Capa_1" x="0" y="0" version="1.1" viewBox="0 0 413.27 413.27" xml:space="preserve" style="enable-background:new 0 0 413.27 413.27"><g><path d="M34.827,188.617l33.72,13.324c15.043-5.94,36.228-14.306,66.072-26.09c-0.657-8.488-2.592-22.88-8.263-37.472 c-11.889-30.581-34.07-46.745-64.149-46.745C27.901,91.635,0,114.559,0,142.74C0,162.854,14.217,180.281,34.827,188.617z M62.207,112.587c21.289,0,35.888,10.92,44.62,33.385c3.798,9.782,5.588,19.742,6.433,26.917H62.207 c-22.748,0-41.255-13.523-41.255-30.149C20.951,126.115,39.459,112.587,62.207,112.587z"/><path d="M152.286,235.028l126.881,50.135c0.349,0.121,0.675,0.212,1.016,0.314v-29.675l-83.594-44.201L152.286,235.028z"/><path d="M35.063,224.552l-0.237,0.095v0.005C14.217,232.986,0,250.416,0,270.531c0,28.178,27.901,51.103,62.207,51.103 c30.079,0,52.26-16.165,64.149-46.747c6.444-16.587,8.062-32.919,8.468-40.636h0.252l145.106-76.73v-29.677 c-0.341,0.106-0.667,0.197-1.016,0.318C279.167,128.163,35.2,224.493,35.063,224.552z M106.826,267.296 c-8.731,22.465-23.331,33.386-44.62,33.386c-22.748,0-41.255-13.528-41.255-30.15c0-16.632,18.508-30.154,41.255-30.154h51.052 C112.414,247.554,110.624,257.514,106.826,267.296z M135.398,214.928c-4.581,0-8.295-3.711-8.295-8.294 c0-4.581,3.714-8.296,8.295-8.296c4.574,0,8.291,3.715,8.291,8.296C143.689,211.217,139.972,214.928,135.398,214.928z"/><rect width="23.349" height="10.507" x="249.829" y="201.38"/><rect width="23.349" height="10.507" x="296.526" y="201.38"/><rect width="23.349" height="10.507" x="343.224" y="201.38"/><rect width="23.349" height="10.507" x="389.921" y="201.38"/><polygon points="215.918 201.38 203.132 201.38 203.132 208.142 203.132 211.888 226.48 211.888 226.48 201.38"/></g></svg>